<svg xmlns="http://www.w3.org/2000/svg" viewBox="0 0 440 248" role="img" aria-label="Basketball court">
  <defs>
    <linearGradient id="bkBg" x1="0" y1="0" x2="0" y2="1">
      <stop offset="0" stop-color="#FBEAD7"/><stop offset="1" stop-color="#F6D9B8"/>
    </linearGradient>
  </defs>
  <rect width="440" height="248" fill="url(#bkBg)"/>
  <rect x="40" y="44" width="360" height="160" rx="10" fill="#E8964A"/>
  <g fill="none" stroke="#FFFFFF" stroke-width="3">
    <rect x="52" y="56" width="336" height="136" rx="4"/>
    <line x1="220" y1="56" x2="220" y2="192"/>
    <circle cx="220" cy="124" r="30"/>
    <!-- left key + arc -->
    <rect x="52" y="96" width="58" height="56"/>
    <path d="M110 96 a28 28 0 0 1 0 56"/>
    <!-- right key + arc -->
    <rect x="330" y="96" width="58" height="56"/>
    <path d="M330 96 a28 28 0 0 0 0 56"/>
  </g>
  <!-- hoops -->
  <g stroke="#C0531F" stroke-width="3" fill="none">
    <circle cx="40" cy="124" r="9"/><circle cx="400" cy="124" r="9"/>
  </g>
  <!-- ball -->
  <g>
    <circle cx="220" cy="124" r="13" fill="#E2702A" stroke="#9C4A18" stroke-width="2"/>
    <path d="M207 124 h26 M220 111 v26 M211 115 q9 9 18 18 M229 115 q-9 9 -18 18" stroke="#9C4A18" stroke-width="1.6" fill="none"/>
  </g>
</svg>
