<svg xmlns="http://www.w3.org/2000/svg" viewBox="0 0 440 248" role="img" aria-label="Volleyball court">
  <defs>
    <linearGradient id="vbBg" x1="0" y1="0" x2="0" y2="1">
      <stop offset="0" stop-color="#FBEAD7"/><stop offset="1" stop-color="#F6D9B8"/>
    </linearGradient>
  </defs>
  <rect width="440" height="248" fill="url(#vbBg)"/>
  <rect x="46" y="58" width="348" height="132" rx="10" fill="#E8964A"/>
  <g fill="none" stroke="#FFFFFF" stroke-width="3">
    <rect x="58" y="70" width="324" height="108" rx="4"/>
    <line x1="160" y1="70" x2="160" y2="178"/>
    <line x1="280" y1="70" x2="280" y2="178"/>
  </g>
  <!-- net -->
  <line x1="220" y1="48" x2="220" y2="200" stroke="#4A5169" stroke-width="4"/>
  <g stroke="#4A5169" stroke-width="1.4" opacity="0.85">
    <rect x="206" y="70" width="28" height="40" fill="none"/>
    <line x1="213" y1="70" x2="213" y2="110"/><line x1="220" y1="70" x2="220" y2="110"/><line x1="227" y1="70" x2="227" y2="110"/>
    <line x1="206" y1="80" x2="234" y2="80"/><line x1="206" y1="90" x2="234" y2="90"/><line x1="206" y1="100" x2="234" y2="100"/>
  </g>
  <!-- ball -->
  <g>
    <circle cx="300" cy="92" r="13" fill="#FFFFFF" stroke="#B9C0D0" stroke-width="2"/>
    <path d="M300 79 q-12 13 0 26 M300 79 q12 13 0 26 M287 92 h26" stroke="#9AA3B8" stroke-width="1.6" fill="none"/>
  </g>
</svg>
